<?xml version="1.0" encoding="UTF-8"?>
<svg version="1.1" xmlns="http://www.w3.org/2000/svg" width="250" height="167">
<path d="M0 0 C82.5 0 165 0 250 0 C250 55.11 250 110.22 250 167 C167.5 167 85 167 0 167 C0 111.89 0 56.78 0 0 Z " fill="#FEF9FA" transform="translate(0,0)"/>
<path d="M0 0 C15.58511556 8.50097212 31.14668194 17.05350542 46.41674805 26.11157227 C52.7283517 29.85347839 59.07992266 33.52432671 65.4375 37.1875 C66.54472412 37.82550537 67.65194824 38.46351074 68.79272461 39.12084961 C71.06337068 40.42889477 73.33412358 41.73675448 75.60498047 43.04443359 C82.14536756 46.81176428 88.68244101 50.58484309 95.21923828 54.35839844 C100.21303512 57.2406836 105.20801234 60.12083037 110.20825195 62.9919281 C133.82166049 76.55097112 133.82166049 76.55097112 144 83 C140.59166354 85.8455204 137.16533016 88.18211602 133.30078125 90.36328125 C132.18751465 90.99500244 131.07424805 91.62672363 129.92724609 92.27758789 C129.33901062 92.60872589 128.75077515 92.93986389 128.14471436 93.28103638 C125.63313685 94.69495436 123.12707484 96.1185265 120.62054443 97.54136658 C119.32383464 98.27727543 118.02683499 99.01267376 116.72955322 99.74757385 C110.42563732 103.31957855 104.14790189 106.93633135 97.875 110.5625 C96.81192627 111.17649658 95.74885254 111.79049316 94.65356445 112.4230957 C92.5081844 113.66223343 90.36292029 114.9015719 88.21777344 116.14111328 C82.81329355 119.26324605 77.40652588 122.38141204 72 125.5 C69.8333225 126.74998122 67.66665583 127.99998121 65.5 129.25 C52.5 136.75 52.5 136.75 49.24487305 138.62792969 C47.09526366 139.86810761 44.94568642 141.10834127 42.79614258 142.34863281 C37.72690788 145.2735023 32.65735064 148.19780833 27.5866394 151.12011719 C25.19573403 152.49806938 22.80501328 153.87634172 20.41430664 155.25463867 C18.73016037 156.22540982 17.04574769 157.19571874 15.36132812 158.16601562 C13.82702148 159.05063477 13.82702148 159.05063477 12.26171875 159.953125 C10.91533325 160.72897949 10.91533325 160.72897949 9.54174805 161.52050781 C7.7760795 162.54826225 6.02845695 163.60740082 4.29614258 164.69042969 C2 166 2 166 0 166 C0 111.22 0 56.44 0 0 Z " fill="#0144FE" transform="translate(0,0)"/>
<path d="M0 0 C0.79068888 -0.00170885 1.58137776 -0.0034177 2.39602691 -0.00517833 C5.05397025 -0.00848099 7.71166292 0.00254317 10.36958313 0.01345825 C12.27147923 0.0140222 14.17337576 0.01370613 16.07527161 0.01257324 C21.24645458 0.01199808 26.41754526 0.02377879 31.58870673 0.03772116 C36.9899294 0.05020134 42.39115405 0.05139687 47.79238892 0.05377197 C58.02398242 0.05999473 68.25553333 0.0764163 78.48710805 0.09647095 C90.13386664 0.11880522 101.78062724 0.12981716 113.4274019 0.13986182 C137.38902907 0.16078184 161.3506154 0.19637488 185.31221008 0.24050903 C185.31221008 11.46050903 185.31221008 22.68050903 185.31221008 34.24050903 C102.81221008 34.24050903 20.31221008 34.24050903 -64.68778992 34.24050903 C-61.62303855 31.94194551 -58.75576313 30.04706992 -55.45341492 28.15847778 C-54.41515564 27.56252808 -53.37689636 26.96657837 -52.30717468 26.35256958 C-51.19527771 25.7174646 -50.08338074 25.08235962 -48.93778992 24.42800903 C-46.59766668 23.08474235 -44.25782121 21.74100109 -41.91825867 20.39675903 C-41.02414528 19.8835334 -41.02414528 19.8835334 -40.11196899 19.35993958 C-33.81007987 15.74109543 -27.52796675 12.08870223 -21.25028992 8.42800903 C-20.23289734 7.83592651 -19.21550476 7.24384399 -18.1672821 6.63381958 C-17.22658875 6.08508179 -16.28589539 5.53634399 -15.31669617 4.97097778 C-14.49242126 4.49039917 -13.66814636 4.00982056 -12.81889343 3.51467896 C-8.12874844 0.71047839 -5.42770654 -0.04260237 0 0 Z " fill="#ED0202" transform="translate(64.68778991699219,132.75949096679688)"/>
<path d="M0 0 C82.17 0 164.34 0 249 0 C249 10.89 249 21.78 249 33 C224.12043386 33.32537671 199.24138774 33.57457664 174.36011505 33.72537041 C162.80476529 33.79727733 151.25076926 33.8951418 139.69628906 34.05615234 C129.61435502 34.19657501 119.53340211 34.28622009 109.45051718 34.31723893 C104.12095089 34.33534626 98.79418901 34.37727285 93.4655304 34.48022079 C51.65571341 35.25700102 51.65571341 35.25700102 33.16395378 20.65518951 C30.01285175 18.24493885 26.62822474 16.37184334 23.14453125 14.4921875 C22.07138672 13.87859375 20.99824219 13.265 19.89257812 12.6328125 C17.76639073 11.41938913 15.63869013 10.20861474 13.50976562 9 C12.46111328 8.39929687 11.41246094 7.79859375 10.33203125 7.1796875 C8.96655151 6.40214111 8.96655151 6.40214111 7.57348633 5.60888672 C5 4 5 4 0 0 Z " fill="#ED0000" transform="translate(1,0)"/>
<path d="M0 0 C1.31804626 -0.00073013 2.63609253 -0.00146027 3.99407959 -0.00221252 C7.58262294 -0.00363827 11.1703187 0.0256126 14.75866628 0.06065726 C18.51821975 0.09206291 22.27779591 0.09486262 26.03746033 0.1007843 C33.14533122 0.1162813 40.25281437 0.15725291 47.36051506 0.20753175 C55.45724996 0.263555 63.55400406 0.29094421 71.65088475 0.31600893 C88.29608326 0.36817316 104.94074814 0.45981216 121.58569336 0.56762695 C121.58569336 11.45762695 121.58569336 22.34762695 121.58569336 33.56762695 C58.55569336 33.56762695 -4.47430664 33.56762695 -69.41430664 33.56762695 C-63.79743044 29.07412599 -63.79743044 29.07412599 -60.83227539 27.48168945 C-60.1593042 27.11519287 -59.48633301 26.74869629 -58.79296875 26.37109375 C-58.06988525 25.98219971 -57.34680176 25.59330566 -56.60180664 25.19262695 C-47.91452837 20.4482259 -39.36148407 15.4918234 -30.82714844 10.47827148 C-29.86462158 9.91350098 -28.90209473 9.34873047 -27.91040039 8.7668457 C-27.06662842 8.27015381 -26.22285645 7.77346191 -25.35351562 7.26171875 C-24.38357666 6.70266846 -23.4136377 6.14361816 -22.41430664 5.56762695 C-21.82552546 5.15868006 -21.23674427 4.74973316 -20.63012123 4.32839394 C-13.86279794 -0.04226883 -7.89616942 -0.11540279 0 0 Z " fill="#FEFEFF" transform="translate(128.414306640625,99.432373046875)"/>
<path d="M0 0 C43.89 0 87.78 0 133 0 C133 10.89 133 21.78 133 33 C88.78 33 44.56 33 -1 33 C2.03544644 30.72341517 4.91190916 28.80086093 8.16796875 26.8984375 C9.14314453 26.32609375 10.11832031 25.75375 11.12304688 25.1640625 C12.13431641 24.57367188 13.14558594 23.98328125 14.1875 23.375 C16.20261206 22.196661 18.21697717 21.01704337 20.23046875 19.8359375 C21.12145264 19.31563965 22.01243652 18.7953418 22.93041992 18.25927734 C24.91585177 17.16298543 24.91585177 17.16298543 26 16 C17.42 11.05 8.84 6.1 0 1 C0 0.67 0 0.34 0 0 Z " fill="#ED0000" transform="translate(117,67)"/>
<path d="M0 0 C2.11434065 3.17151097 3.01955937 5.86432861 4.125 9.5 C4.47820313 10.6446875 4.83140625 11.789375 5.1953125 12.96875 C6 16 6 16 6 19 C12.27 19 18.54 19 25 19 C21.88946842 22.11053158 19.2506787 24.73885366 15.8125 27.3125 C15.13832031 27.82425781 14.46414062 28.33601563 13.76953125 28.86328125 C12 30 12 30 10 30 C10.44472656 31.12019531 10.88945313 32.24039063 11.34765625 33.39453125 C11.91976086 34.8669972 12.49134865 36.33966403 13.0625 37.8125 C13.35705078 38.55048828 13.65160156 39.28847656 13.95507812 40.04882812 C16.11328125 45.66015625 16.11328125 45.66015625 15 49 C10.38 45.7 5.76 42.4 1 39 C-3.61496647 41.30748323 -7.42891133 44.22392516 -11.5390625 47.3203125 C-14 49 -14 49 -16 49 C-15.80664062 48.29875 -15.61328125 47.5975 -15.4140625 46.875 C-15.15367188 45.92625 -14.89328125 44.9775 -14.625 44 C-14.36976562 43.071875 -14.11453125 42.14375 -13.8515625 41.1875 C-12.85792899 37.46821127 -11.92611144 33.73665834 -11 30 C-12.010625 29.28972656 -13.02125 28.57945313 -14.0625 27.84765625 C-15.37512278 26.91944443 -16.68761614 25.99104959 -18 25.0625 C-18.66773438 24.59392578 -19.33546875 24.12535156 -20.0234375 23.64257812 C-21.70029767 22.45337627 -23.35238787 21.22940446 -25 20 C-25 19.67 -25 19.34 -25 19 C-18.73 19 -12.46 19 -6 19 C-5.34 16.03 -4.68 13.06 -4 10 C-3.34589586 8.1260155 -2.64754077 6.26584649 -1.875 4.4375 C-1.52179687 3.59058594 -1.16859375 2.74367187 -0.8046875 1.87109375 C-0.53914063 1.25363281 -0.27359375 0.63617188 0 0 Z " fill="#F7F9FF" transform="translate(48,56)"/>
</svg>
